<?xml version="1.0" encoding="iso-8859-1"?>
<!-- Generator: Adobe Illustrator 18.1.1, SVG Export Plug-In . SVG Version: 6.00 Build 0)  -->
<svg version="1.1" id="Capa_1" xmlns="http://www.w3.org/2000/svg" xmlns:xlink="http://www.w3.org/1999/xlink" x="0px" y="0px"
	 viewBox="0 0 221.147 221.147" style="enable-background:new 0 0 221.147 221.147;" xml:space="preserve">
<g>
	<g>
		<path style="fill:#010002;" d="M145.293,16.323C136.112,5.793,123.846,0,110.744,0S85.371,5.798,76.189,16.323L42.108,55.381
			C30.36,68.859,25.873,81.537,29.794,90.169c1.556,3.41,5.858,9.138,17.231,9.138h25.836v87.721
			c0,18.814,15.3,34.119,34.114,34.119h5.205c18.814,0,34.114-15.306,34.114-34.119V99.306h26.994
			c11.944,0,16.431-5.939,18.036-9.48c3.938-8.664-0.43-21.218-11.971-34.446L145.293,16.323z M181.441,85.323
			c-1.229,2.703-5.624,3.106-8.137,3.106h-32.433c-3.008,0-5.439,2.437-5.439,5.439v93.16c0,12.814-10.427,23.241-23.236,23.241
			h-5.205c-12.809,0-23.236-10.427-23.236-23.241v-93.16c0-3.002-2.431-5.439-5.439-5.439H47.041c-2.268,0-6.233-0.359-7.326-2.763
			c-1.632-3.59,1.017-12.129,10.606-23.132l34.081-39.058c7.082-8.126,16.437-12.597,26.352-12.597
			c9.905,0,19.265,4.471,26.347,12.597l34.081,39.063C180.543,73.264,183.072,81.711,181.441,85.323z"/>
	</g>
</g>
<g>
</g>
<g>
</g>
<g>
</g>
<g>
</g>
<g>
</g>
<g>
</g>
<g>
</g>
<g>
</g>
<g>
</g>
<g>
</g>
<g>
</g>
<g>
</g>
<g>
</g>
<g>
</g>
<g>
</g>
</svg>
